<?xml version="1.0" encoding="utf-8"?>
<!-- Generator: Adobe Illustrator 16.0.0, SVG Export Plug-In . SVG Version: 6.00 Build 0)  -->
<!DOCTYPE svg PUBLIC "-//W3C//DTD SVG 1.1//EN" "http://www.w3.org/Graphics/SVG/1.1/DTD/svg11.dtd">
<svg fill="#357ebd" version="1.1" id="Layer_2" xmlns="http://www.w3.org/2000/svg" xmlns:xlink="http://www.w3.org/1999/xlink" x="0px" y="0px"
	 width="100px" height="100px" viewBox="0 0 100 100" enable-background="new 0 0 100 100" xml:space="preserve">
<path fill-rule="evenodd" clip-rule="evenodd" d="M92,3H8C5.239,3,3,5.239,3,8v84c0,2.761,2.239,5,5,5h84c2.761,0,5-2.239,5-5V8
	C97,5.239,94.761,3,92,3z M34.088,88.553c-14.553,0-21.571-6.935-21.571-14.381c0-3.618,1.803-8.743,7.724-12.264
	c6.219-3.822,14.652-4.322,19.17-4.633C38,55.465,36.4,53.556,36.4,50.441c0-1.707,0.502-2.713,0.999-3.922
	c-1.105,0.103-2.204,0.202-3.208,0.202c-10.634,0-16.654-7.95-16.654-15.792c0-4.62,2.104-9.752,6.418-13.473
	c5.724-4.726,13.541-6.008,18.966-6.008h19.771l-6.526,4.099h-6.217c2.307,1.909,7.117,5.931,7.117,13.578
	c0,7.436-4.209,10.964-8.421,14.28c-1.306,1.304-2.813,2.712-2.813,4.929c0,2.207,1.508,3.413,2.608,4.325l3.616,2.809
	c4.415,3.72,8.428,7.138,8.428,14.083C60.483,79.005,51.346,88.553,34.088,88.553z M87.483,48.77H77.395v10.117H72.43V48.77H62.391
	V43.75H72.43V33.695h4.965V43.75h10.088V48.77z"/>
<path fill-rule="evenodd" clip-rule="evenodd" d="M48.24,33.749c0-7.243-4.317-18.503-12.64-18.503c-2.616,0-5.42,1.307-7.029,3.32
	c-1.707,2.114-2.204,4.821-2.204,7.443c0,6.734,3.911,17.894,12.544,17.894c2.507,0,5.207-1.2,6.821-2.811
	C48.04,38.771,48.24,35.56,48.24,33.749z"/>
<path fill-rule="evenodd" clip-rule="evenodd" d="M42.82,60.195c-0.8-0.101-1.302-0.101-2.305-0.101
	c-0.904,0-6.324,0.197-10.537,1.615c-2.208,0.799-8.627,3.214-8.627,10.353c0,7.141,6.922,12.277,17.658,12.277
	c9.635,0,14.755-4.637,14.755-10.863C53.764,68.334,50.451,65.627,42.82,60.195z"/>
</svg>
