<?xml version="1.0" encoding="utf-8"?>
<!-- Generator: Adobe Illustrator 16.0.4, SVG Export Plug-In . SVG Version: 6.00 Build 0)  -->
<!DOCTYPE svg PUBLIC "-//W3C//DTD SVG 1.1//EN" "http://www.w3.org/Graphics/SVG/1.1/DTD/svg11.dtd">
<svg version="1.1" id="Layer_1" xmlns="http://www.w3.org/2000/svg" xmlns:xlink="http://www.w3.org/1999/xlink" x="0px" y="0px"
	 width="23.7px" height="23.75px" viewBox="0 0 23.7 23.75" enable-background="new 0 0 23.7 23.75" xml:space="preserve">
<path fill="#ffffff" d="M23.7,19.7c0,2.659-5.961,4.05-11.85,4.05C5.96,23.75,0,22.359,0,19.7c0-2.197,3.832-3.224,6.116-3.64l0.27,1.478
	C2.694,18.209,1.5,19.285,1.5,19.7c0,0.897,3.931,2.55,10.351,2.55S22.2,20.6,22.2,19.7c0-0.44-1.021-1.46-4.885-2.162l0.269-1.478
	C21.641,16.801,23.7,18.023,23.7,19.7z M11.85,20.6c0,0-6-9.398-6-14.6c0-3.3,2.7-6,6-6c3.299,0,6,2.7,6,6
	C17.85,11.1,11.85,20.6,11.85,20.6z M11.85,8c1.1,0,2-0.9,2-2s-0.9-2-2-2c-1.101,0-2,0.9-2,2S10.75,8,11.85,8z"/>
</svg>
