<?xml version="1.0" encoding="utf-8"?>
<!-- Generator: Adobe Illustrator 17.0.0, SVG Export Plug-In . SVG Version: 6.00 Build 0)  -->
<!DOCTYPE svg PUBLIC "-//W3C//DTD SVG 1.1//EN" "http://www.w3.org/Graphics/SVG/1.1/DTD/svg11.dtd">
<svg version="1.1" id="Capa_1" xmlns="http://www.w3.org/2000/svg" xmlns:xlink="http://www.w3.org/1999/xlink" x="0px" y="0px"
	 width="64px" height="64px" viewBox="0 0 64 64" enable-background="new 0 0 64 64" xml:space="preserve">
<path d="M36.077,37.472c1.564,0,2.833-1.268,2.833-2.834V25.78h4.017c0.783,0,1.028-0.502,0.547-1.12L32.814,10.954
	c-0.481-0.618-1.259-0.618-1.735,0.002l-10.554,13.7c-0.479,0.62-0.232,1.124,0.552,1.124h4.368h0.002v11.691H36.077z"/>
<path d="M45.71,35.752v7.414H18.29v-7.414h-2.069c-1.143,0-2.069,0.925-2.069,2.069v8.483c0,0.553,0.447,1,1,1h33.697
	c0.553,0,1-0.447,1-1v-8.483c0-1.145-0.927-2.069-2.069-2.069H45.71z"/>
</svg>
